<svg xmlns="http://www.w3.org/2000/svg" width="22" height="19" viewBox="0 0 22 19">
    <g fill="none" fill-rule="evenodd" stroke="#FFF" stroke-width="1.2">
        <path stroke-linecap="round" d="M16.423 12.334c.719.313 1.138.69 1.138 1.097 0 1.089-2.83 2.07-6.56 2.07-3.732 0-6.948-.981-6.948-2.07 0-.386.38-.747 1.035-1.051"/>
        <path stroke-linecap="round" d="M18.199 9.959c1.985.877 3.222 2.116 3.222 3.489 0 2.663-4.666 4.823-10.42 4.823-5.757 0-10.422-2.16-10.422-4.823 0-1.372 1.235-2.61 3.218-3.487"/>
        <path d="M6.879 9.653l2.536 2.6h3.17l2.536-2.6V6.4L11 .967 6.879 6.401z"/>
    </g>
</svg>
