<svg xmlns="http://www.w3.org/2000/svg" width="22" height="17" viewBox="0 0 22 17">
    <g fill="none" fill-rule="evenodd" stroke="#FFF" stroke-width="1.2">
        <path d="M8.678.567H6.723L5.5 1.826V3.84L6.723 5.1h1.955L9.9 3.84V1.827zM15.278.567h-1.955L12.1 1.826V3.84L13.323 5.1h1.955L16.5 3.84V1.827zM20.228 5.667h-1.955L17.05 6.926V8.94l1.223 1.259h1.955l1.222-1.26V6.927zM3.728 5.667H1.773L.55 6.926V8.94L1.773 10.2h1.955L4.95 8.94V6.927zM9.167 8.5h3.666l3.668 4.723v1.888L13.785 17H8.25L5.5 15.11v-1.887z"/>
    </g>
</svg>
