<svg xmlns="http://www.w3.org/2000/svg" width="20" height="21" viewBox="0 0 20 21">
    <g fill="#333" fill-rule="evenodd">
        <path d="M6.667 18.095h.952v-2.857h-.952zM4.762 4.762h1.905V3.81H4.762zM4.762 8.571h1.905V7.62H4.762zM4.762 12.381h1.905v-.952H4.762z"/>
        <path d="M2.222 0v17.644h-1.11L0 18.747h3.333V1.103H13.89v4.411h-1.667L8.89 8.822v4.411l5 7.72H15l5-7.72v-4.41l-3.333-3.309H15V0H2.222zM10 12.93V9.373l2.778-2.756h3.333l2.778 2.756v3.557l-4.444 6.873L10 12.93z"/>
        <path d="M15.238 11.187l-.241.242h-.473l-.238-.239v-.476l.238-.238H15l.238.238v.473zm.236-1.663h-1.072l.003.002h-.357l-.715.714v1.427l.715.714h1.428v-.005l.71-.709h.004V10.24h-.002v-.003l-.714-.713z"/>
    </g>
</svg>
