<svg xmlns="http://www.w3.org/2000/svg" width="25" height="29" viewBox="0 0 25 29">
    <g fill="none" fill-rule="evenodd">
        <path fill="#FF7E55" d="M14.664 26l-2.482 2.482L9.71 26H0V0h25v26H14.664z"/>
        <g fill="#FFF">
            <path d="M8.91 5L5 8.91v6.18L8.91 19h6.18L19 15.09V8.91L15.09 5H8.91zM6.4 14.51V9.49L9.49 6.4h5.02l3.09 3.09v5.02l-3.09 3.09H9.49L6.4 14.51z"/>
            <path d="M13.113 14.1H10.88l-1.236-1.17-.962 1.015 1.64 1.555h3.365l1.616-1.588-.98-.999zM8.5 11.3h1.4V9.2H8.5zM14.1 11.3h1.4V9.2h-1.4z"/>
        </g>
    </g>
</svg>
