<?xml version="1.0" encoding="UTF-8"?>
<svg width="20px" height="20px" viewBox="0 0 20 20" version="1.1" xmlns="http://www.w3.org/2000/svg" xmlns:xlink="http://www.w3.org/1999/xlink">
    <!-- Generator: sketchtool 50.2 (55047) - http://www.bohemiancoding.com/sketch -->
    <title>18B2A08A-9D7F-4A68-8852-6FB4F2ED3116-661-00000C7C42DED88E</title>
    <desc>Created with sketchtool.</desc>
    <defs>
        <path d="M7.5863,2.0002 L2.0003,7.5852 L2.0003,16.4132 L7.5863,22.0002 L16.4143,22.0002 L21.9993,16.4132 L21.9993,7.5852 L16.4143,2.0002 L7.5863,2.0002 Z M3.9993,15.5852 L3.9993,8.4142 L8.4143,4.0002 L15.5853,4.0002 L20.0003,8.4142 L20.0003,15.5852 L15.5853,20.0002 L8.4143,20.0002 L3.9993,15.5852 Z M13,7 L11,7 L11,13 L18,13 L18,11 L13,11 L13,7 Z" id="path-1"></path>
    </defs>
    <g id="호텔-최종디자인" stroke="none" stroke-width="1" fill="none" fill-rule="evenodd">
        <g id="호텔_01.sub_04.위치" transform="translate(-274.000000, -1482.000000)">
            <g id="@-bottom-tab_호텔" transform="translate(0.000000, 1467.000000)">
                <g id="@-bottom-tab">
                    <g id="recent-view" transform="translate(272.000000, 13.000000)">
                        <g id="Basic-icon-/-menu">
                            <mask id="mask-2" fill="white">
                                <use xlink:href="#path-1"></use>
                            </mask>
                            <use id="Fill-1" fill="#FFFFFF" xlink:href="#path-1"></use>
                            <g id="COLOR" mask="url(#mask-2)" fill="#FFFFFF">
                                <g transform="translate(-18.000000, -18.000000)" id="FFFFFF">
                                    <rect x="0" y="0" width="60" height="60"></rect>
                                </g>
                            </g>
                        </g>
                    </g>
                </g>
            </g>
        </g>
    </g>
</svg>