<svg xmlns="http://www.w3.org/2000/svg" xmlns:xlink="http://www.w3.org/1999/xlink" width="23" height="29" viewBox="0 0 23 29">
    <defs>
        <path id="a" d="M11.5 17.25a6.758 6.758 0 0 1-6.75-6.75 6.757 6.757 0 0 1 6.75-6.75 6.757 6.757 0 0 1 6.75 6.75 6.758 6.758 0 0 1-6.75 6.75M11.5 3a7.5 7.5 0 1 0 0 15 7.5 7.5 0 0 0 0-15m-.375 7.125H10a.75.75 0 0 1-.75-.75V8.25A.75.75 0 0 1 10 7.5h1.125v2.625zm1.875.75a.75.75 0 0 1 .75.75v1.125a.75.75 0 0 1-.75.75h-1.125v-2.625H13zM11.875 5.25h-.75v1.5H10a1.5 1.5 0 0 0-1.5 1.5v1.125a1.5 1.5 0 0 0 1.5 1.5h1.125V13.5H8.5v.75h2.625v1.5h.75v-1.5H13a1.5 1.5 0 0 0 1.5-1.5v-1.125a1.5 1.5 0 0 0-1.5-1.5h-1.125V7.5H14.5v-.75h-2.625v-1.5z"/>
    </defs>
    <g fill="none" fill-rule="evenodd">
        <path fill="#B18E79" d="M16.031 0l-3.44.015-2.293.01-3.44.015L.184 6.12 0 6.215v8.462l.573.6L10.452 29l2.293-.01L22.99 14.458v-.107l.011-.013v-6.66l-.047-.043-.008-1.456L16.031 0zm-4.494 26.767l.057.06-.007.01-.05-.07z"/>
        <use fill="#FFF" xlink:href="#a"/>
    </g>
</svg>
